<?xml version="1.0" encoding="UTF-8"?>
<svg id="Layer_1" xmlns="http://www.w3.org/2000/svg" version="1.1" viewBox="0 0 288 163.12">
  <!-- Generator: Adobe Illustrator 30.5.1, SVG Export Plug-In . SVG Version: 2.1.4 Build 3)  -->
  <defs>
    <style>
      .st0 {
        fill: #efebe1;
      }
    </style>
  </defs>
  <path class="st0" d="M260.28,25.14c1.5,2.08.73,2.05,1.51,3.87s4.45,7.06,6.01,8.42c3.01,2.64,7.84,3.01,11.47,4,1.25.34,2.51,1.08,3.73,1.52,1.13.41,2.59.51,3.67,1.05,2.69,1.36.59,2.68-.05,4.41-1.03,2.81-.08,5.42-.24,8.28-.92-.06-1.52.86-2.25,1.02-1.02.23-2.13-.1-3.23.18s-3.99,2.19-5.32,2.81c-4.68,2.2-9.21,3.26-13.79,5.62-3.81,1.96-7.39,4.31-11.22,6.36-3.24,1.73-6.27,2.97-9.61,4.55-.75.36-1.92.5-2.53.88-.92.59-.84,2.28-1.72,2.99l-1.57-1.04c-1.33,2.53-4.36,2.7-6.52,3.98-1.79,1.05-2.43,2.45-3.47,3.87-.13.18-3.09,2.9-3.27,3.02-1.13.73-2.64.72-3.91,1.34-1.99.98-3.3,2.95-4.87,4.31-3.82,3.3-8.29,6.33-11.1,10.67-.79,1.23-1.35,2.92-2.18,4.11-2.64,3.79-7.17,2.14-10.85,3.31-1.21.38-2.59,1.25-3.85,1.66l-4.82,3.19c.28,1.89-.09,3.82.22,5.72,1.15,7.02,4.31,13.94,5.84,20.91.22,1.01.75,3.35.53,4.21-.54,2.15-1.45,1.23-2.63,1.3-4.45.26-7.12.92-11.41,1.99-.89.22-1.97.33-2.89.39,1.35,3.55.59,5.54-2.53,7.56-2.47,1.61-4.78,1.46-7.43.43-4.93-1.92-9.34-4.73-14-6.98-1.08-.52-2.03-1.27-3.13-1.75-3.81.9-7.51,2.15-11.19,3.49-1.22.44-2.53,1.33-3.73,1.78-2.46.91-5.7,1.35-8.08,2.41-1.18.53-2.38,1.46-3.6,1.9-.86.31-2.04.39-2.7-.32-1.23-1.31-.04-1.48-.03-1.58.3-2.54-.97-5.7-.95-8.14,0-.43.39-2.43.54-2.82.31-.78,2.02-1.56,2.79-2.19,1.19-.97,4.25-3.21,5.02-4.23,1.66-2.22-2.64-2.67-4.12-3.43-1.59-.82-3.4-2.43-5-3.4-.46-.28-1.18-.3-1.73-.63-1.03-.6-3.27-4.04-3.3-5.07-.03-1.12,1.24-1.56,1.45-2.21.3-.92.24-2.88.44-4.02.1-.58.59-1.17.7-1.92.23-1.63-.07-3.49-.37-5.09-.98-.69-2.15-.94-3.19-1.53-.9-.51-1.79-1.45-2.65-1.81-1.01-.43-2.17-.45-3.27-.93-1.2-.52-2.19-1.55-3.35-2.16-2.87-1.53-5.83-2.84-8.64-4.47-2.59-1.5-6.76-7.23-8.94-9.68-2.62-2.95-6.05-5.77-8.08-9.23-.84-1.44-1.11-3.04-1.84-4.46-1.61-3.17-3.09-4.26-3.7-8.36-.16-1.07.19-1.97.24-3-1.94,1.33-3.15,3.48-4.71,5.12-3.1,3.25-5.38,4.51-7.32,8.94-.67,1.53-1.55,6.37-3.11,6.87-.27.09-.71-.12-1.08-.03-2.97.67-2.23,2.03-3.31,4.29-1.79,3.76-6.36,5.11-9.76,6.76s-8.43,4.55-11.87,5.17c-2.98.54-6.53.73-9.55,1.2-1.29.2-3.27.97-4.23,1.03-1.81.13-7.57-2.39-9.04-3.57-1.01-.82-1.19-2.13-1.59-3.27,2.01-.47,4.34-1.18,6.21-2.06,3.98-1.87,6.71-4.33,10.07-6.98,7.45-5.9,14.99-10.67,21.08-18.26,4.11-5.13,7.86-10.49,11.11-16.17,1.28-2.23,2.78-2.22,4.65-3.48,1.2-.81,2.16-1.78,3.45-2.58,1.17-.72,3.58-1.54,4.34-2.14s1.73-2.18,2.59-2.98c6.41-5.98,12.97-11.9,19.64-17.61,1.04-.89,1.96-2.18,3.01-3.02,4.47-3.58,12.18-6.09,17.71-7.73,5.17-1.54,10.69-.04,15.98-.25,3.22-.13,6.67-1.09,9.88-1.42,4.82-.51,13.34-.94,18.04-.27,1.36.19,2.31,1.21,3.62,1.63,2.29.73,5.21,1.11,7.56,1.88,1.23.41,2.54,1.44,3.86,1.65,4.33.68,8.14,1.77,12.34,3.14,3.63,1.18,8.55,3.61,12.26,4,8.36.89,21.19,3.29,29.35,2.09.26-.04,2.6-.74,2.71-.83.67-.56.06-1.96.05-2.68-.03-2.9.19-6.03-.03-8.89-.19-2.4-.89-5-1-7.38-.2-4.13.75-8.42,1.31-12.46,1.87.24,2.07,1.59,3.04,2.6,3.42,3.54,6.33,7.21,9.23,11.23.67.92,1.05,2.03,1.81,2.9.16.18-.01.5.6.34-.02-.87.39-1.77.74-2.54,1.69-3.66,3.59-7.24,5.44-10.83.81-1.58,1.49-3.68,2.4-5.2.4-.67,1.45-.37,1.77.21s1.4,4.16,1.59,4.97c.57,2.51.39,5.12.72,7.68l2.16,7.55c2.98.92,6.88.31,9.45,2.35.68.54,1.06,1.31,1.55,1.99ZM225.93,12.02l-3.52-5.41c.44,3.42.31,6.9-.04,10.33-.12,1.23-.64,2.54-.75,3.71-.23,2.46.35,4.9.27,7.35-.04,1.18-.33,4.91-.6,5.96-.34,1.34-1.02.74-1.79,1.1-.6.28-.95.79-1.56,1.06-.98.44-2.11.31-3.03.9-.99,5,.45,10.1,2.38,14.7,1.98,4.71,4.17,8.64,7.35,12.59.55.68,1.65.98,1.94,1.99l-2.29,1.88c-.32,1.72-.31,3.88.34,5.58.38.99,1.65,3.41,2.22,4.34.69,1.13,1.75,1.92,2.63,2.89,2.27-.59,3.98-3.72,6.22-1.49l.34-.08c.84-1.35,2.35-2.23,3.29-3.29.68-.77.91-1.67,1.48-2.46,1.4-1.94,2.28-1.4,4.21-2.08,4.52-1.59,6.92-2.33,10.89-4.92,2.73-1.78,6.23-2.05,8.99-3.27.78-.35,1.44-1.19,2.28-1.66,4.46-2.5,9.59-3,13.96-5.45,1.11-.62,1.04-2.07,2.61-1.72l1.06-6.22c-2.13-.67-4.01-1.74-4.95-3.84l2.09-.65c-3.87-1.75-8.11-2.23-12.05-3.81-5.17-2.07-5-3.93-7.93-8.07-1.48-2.1-3.33-4.35-5.18-6.09-4.62-4.34-6.59-3.77-12.7-3.24-1.5.13-2.42.18-3.92.25-.97.05-2.99,1.01-3.41.97-.86-.07-3.48-1.93-4.25-2.57-3.19-2.66-4.52-5.86-6.57-9.28ZM39.87,91.08c.8.42,2.34.5,2.62,1.7,0,.4-1.88,4.01-2.25,4.57-.63.93-2.22,1.91-2.07,2.91,1.34-1.39,3-2.47,4.33-3.88,1.16-1.23,2.85-4,4.02-4.96.7-.57,2.25-.74,2.67-1.13,1.78-1.64,3.18-9.62,5.73-12.5,3.28-2.39,6.02-5.48,9.23-7.95.45-.35,1.27-1.14,1.76-1.02.72.44,1.51,1,2.03,1.67,2.01,2.61.37,4.34.8,7.07.4,2.49,2.58,6.09,3.79,8.27,1.53,2.75,1.6,4.25,3.81,6.88,3.13,3.71,8.9,9.88,13.01,12.23,2.02,1.15,4.9,2.76,6.93,3.82,1.21.63,2.39.65,3.56,1.16,1.47.65,2.03,1.63,4.11,1.06l.41-.39c.08-.23.01-.46-.03-.69-.05-.28-2-4.91-2.19-5.17-.41-.57-1.47-1.19-1.92-2.01-1.89-3.48,2.51-5.93,5.47-5.08.29-1.53-1-4.77.27-5.89.61-.54,4.03-1.48,4.98-1.45-.27-2.82-.98-5.58-1.51-8.36-.43-2.25-1.04-3.01-1.56-4.97-.36-1.33-1.03-4.61-1.14-5.94s-.2-2.82,1.44-3.04c2.59-.35,6.78,1.63,8.86,3.16,2.62,1.92,3.51,3.23,5.58,5.51,1.49,1.64,3.66,3.13,5.25,4.71,4.59,4.53,7.88,9.11,6.98,15.97,4.51,3.08,8.88,6.25,13.48,9.22.59-3.17,1.02-5.59,4.15-7.13,1.65-.81,3.01-.88,4.69-1.34,2.39-.66,4.72-1.6,7.29-1.5-.75,2.35-7.14,2.43-7.89,3.32-.64.77-.82,2.56-1.24,3.42-.34.71-1.15,1.14-1.59,1.82-.2.31-1.24,2.63-1.25,2.84-.02.51.65,1.59.83,2.22.3,1.01-.05,2.07,1.03,2.9l1.7-3.3c.19-1.2-1.06-2.33-.39-3.52.2-.36,1.75-1.53,2.23-1.71,1.91-.68,3.79-.41,5.24,1.05,2.21,2.23,3.49,5.31,5.4,7.71.75.94,1.79,1.74,2.6,2.64l.93-3.65c1.8-.36,2.95,1.24,3.87,2.53l2.14,4.02c0-3.61,2.24-2.92,4.59-3.74.16-.06.15-.36.34-.43,2.15-.78,6.89-1.92,8.19-3.83.74-1.09.63-2.02,1.97-3.02,4.53-3.38,10.86-4.3,13.37-10.5.92-2.28,1.35-5.26,2.22-7.48,1.14-2.93,1.69-3.31,2-6.86.19-2.12.08-4.32.17-6.44.47-1.49,2.19.2,2.31-1.11.06-.62-.66-3.82-.87-4.65-1.28-5.07-4.96-9.47-4.92-14.75l.81-.28c-.88-3.55-4.27-5.56-6.67-8.02-2.55-2.63-5.25-5.11-7.77-7.7-.86-.88-1.28-2.01-2.34-2.9-3.5-2.93-6.46-3.2-10.49-4.73-2.76-1.05-5.4-2.37-8.15-3.39-3.28-1.21-6.43-1.74-9.7-2.63-5.97-1.63-10.94-2.63-17.09-3.63-4.01-.65-7.16-.42-11.1-.7-3.47-.25-5.74-.86-9.44-.52-8.05.75-15.16,3.5-23.36,4.22-10.24.91-17.13,5.91-23.46,13.75-3.56,4.41-9.61,14.12-14.62,16.33-1.65.73-3.51,1.09-5.24,2.11-1.25.74-2.37,2-3.4,2.64-.97.59-2.53.85-3.56,1.42-2.94,1.61-5.44,7.59-7.44,10.4-1.71,2.41-4.8,6.24-6.79,8.42-2.16,2.36-4.9,4.15-6.69,6.95-.05.67.09.29.46.19,2.76-.77,6.88-6.69,9.66-2.97,1.2,1.61-1.8,3.55-2.5,5.13.4.14,1.08.8,1.31.92-.99,0-2.18.23-2.87-.68-.02-.11.49-1.11.62-1.32.36-.56,2.4-2.9,2.47-3.17.53-1.81-1.37-.76-2.14-.3-2.63,1.6-3.95,3.51-7.31,4.49-.71.21-2.33.21-2.56.32-.5.23-2.3,2.38-3.23,3.07-3.47,2.57-7.92,5.19-11.65,7.5-2.75,1.7-6.04,3.28-8.66,4.97-.25.16-.47-.03-.34.58,1.34.02,2.65,1.13,3.82,1.29,1.26.17,3.25-.24,4.71-.25,3.2-.02,7.61.17,10.75-.38,1.04-.18,8.07-2.61,8.53-3.13.79-.91.87-.93,1.69-1.72,2.75-2.62,3.43-4.58,4.93-7.92.25-.57,1.94-3.08,1.23-3.36ZM211.39,38.09c-2.28.84-5.02-.21-7.21,0-1.67.16-.97.27-2.64.02-2.51-.38-4.92-1.1-7.45-1.07.49.68,1.28,1.15,1.83,1.78,1.51,1.69,2.96,3.5,4.46,5.17,2.52,2.82,5.51,5.4,7.86,8.4,1.23,1.57,1.04,2.71,2.11,4.19l-2.36-.27,3.59,6.9,3.66,12.78c-.57,1.09-1.87.61-2.8.39l-2.23,17.84c1.44-.88,2.43-2.31,3.68-3.4,4.39-3.84,7.6-4.49,12.11-7.3.3-.18,1.91-1.36,1.91-1.49-2.1-1.11-2.71-1.6-3.48-3.86s-2.27-6.04-2.46-8.17c-.22-2.53.94-2.13,2.52-3.44l-3.15-2.43c-4.31-7.35-8.58-13.37-9.93-22.02-.24-1.55.12-2.53-.03-4.02ZM112.43,70.71c-.39-.32-3.09-1.92-3.32-1.66.04.74-.06,1.5-.01,2.24.1,1.54.5,5.31,1.01,6.6.36.92,1.12,1.54,1.3,2.63.17,1.01-.03,2.04.1,3.05.29,2.37,1.77,4.72,1.8,7.24-1.36.29-5.18.38-5.66,1.83-.56,1.69,1.36,3.49.82,5.28-.5.71-2.78-.1-3.56.09-.84.2-2.91,1.71-2.91,2.65,0,.5,1.56,2.45,2.01,3,.54.66,1.94,1.65,2.27,2.44s.08,1.58.26,2.36c.21.93.81,1.76.99,2.71l-.04.32c-.93.73-1.84.49-2.91.64-.26.04-1.05.08-.99.45,3.34.94,5.96,2.46,7.65,5.6,1.15,2.14,1.06,4.73.41,7.06-.3,1.09-1.16,2.06-1.44,3.28-.24,1.03-.65,3.56-.02,4.36,1.4.79,2.68,2.34,3.91,3.17,1.33.9,3.19,1.4,4.58,2.24,10.05,6.04,20.76,10.76,30.89,16.59,1.88,1.08,9.99,4.58,11.87,4.67,1.37.07,3.25-.63,4.4-1.36s4.01-3.12,3.32-4.68c-.49.06-.91.29-1.43.28-11.49-.41-21.48-9.88-31.52-14.66-3.41-1.62-7.59-2.49-10.05-5.68-1.11-1.44-1.62-3.43-3.29-4.58-.18-.41.66-1.26.79-1.7.2-.68.03-1.59.2-2.31,1.71-7.48,4.49-15.11,6.53-22.58,1.14-4.18,1.66-7.04,0-11.1s-3.92-6.09-6.3-9.44c-.54-.76-1.65-3.13-1.95-3.43-.34-.34-2.19-1.29-2.94-1.91-2.29-1.93-4.52-3.83-6.78-5.67ZM25.18,92.66h-.52v.26h.52v-.26ZM149.14,110.59c-1.83-1.68-3.56-2.67-5.49-4.08-2.1-1.54-3.98-3.45-6.47-4.41.78,3.16.72,6.67,1.34,9.81.13.64.52,1.14.64,1.72.85,4.08.16,10.21.64,14.57.11,1.01.7,1.87.79,2.88s-.36,2.17-.27,2.87c.07.56.82,1.06.79,1.72.5-.24.56-1.06.93-1.55,2.07-2.74,3.68-5.7,5.47-8.69,1.96-3.28,2.56-7.31,5.36-10.12.04-.19-1.82-3.12-2.05-3.38-.29-.34-1.15-.85-1.68-1.34ZM172.54,117.01c-2.03,1.02-3.49-1.19-4.53-2.61s-1.85-3.07-3.05-4.56c-1.26-1.56-3.05-3.21-4.36-4.82l-.61-.04c-.16.88-.47,2.13-.93,2.87-.72,1.15-2.42,1.3-2.89,2.88-.25.86-.25,4.13.08,4.93,2.55,3.23,5.37,6.21,7.73,9.58.8,1.15,2.75,3.84,3.16,5,.18.49-.08.9.06,1.22.37.84,3.21,3.76,4.02,4.91s2.61,3.68,2.92,4.95c.17.7-.57.12-1.04.23-2.91.64-5.99,1.4-8.92,2.1-.83.2-3.91,1.02-4.43,1.34-.7.42-2.38,2.52-2.09,3.36,2.25,1.6,5.76,3.21,8.54,3.3.67.02,1.23-.31,1.8-.27s.94.53,1.26.51c.31-.02,2.24-.99,3.01-1.19,3.01-.79,6.24-.54,9.24-1.51,2.49-.81,2.7-2.62,2.28-4.91-.91-4.96-3.65-10.84-4.79-15.93-.71-3.16-.29-2.61-1.74-5.6s-2.55-6.27-3.88-9.36c-.96.45-.46,3.05-.82,3.63ZM171.77,140.12c.12-.37-.08-.62-.23-.92-.77-1.59-3.88-4.42-5.11-6.17-.48-.68-.89-2.55-1.81-2.31-.52.14-3.9,4.58-4.63,5.35-2.84,3.02-5.73,5.33-8.14,8.91-.15.22-.37.27-.26.65l4.46,1.84c-.27-1.83.84-4.9,2.69-5.57,4.02-1.45,9.03.03,13.03-1.79Z"/>
  <path class="st0" d="M192.24,126.76c-.08.1-1.73-1.12-1.94-1.34-1.13-1.18-3.3-5.5-2.64-7.05.14-.32,1.57-1.47,1.89-1.53,3.52.81,5.15,4.06,1.12,5.87l1.57,4.05ZM191.37,120.38c.29-.4.55-1.57-.07-1.75l-2.46,1.05c-.02,1.66,1.62,1.97,2.53.69Z"/>
  <path class="st0" d="M198.8,116.26c-.43-1.08-2.37,1.33-3.15,1.05l1.18,2.09c.79-.26,2.23-2.49,1.97-3.14.84,1.25,1.29,1.14-.26,2.5v.38c1.18.52,2.28,1.5,2.88,2.63-.72.56-3.37-3.21-4.48-1.94-.28.96.61,1.69.8,2.34.29.96-1.17-.19-1.41-.43-1.18-1.18-2.66-5-1.21-6.13.15-.12,1.84-.9,1.96-.91,1.04-.04,1.33,1.01,1.71,1.56Z"/>
  <path class="st0" d="M211.13,106.56c.58.62,3.48,5.11,3.14,5.5-1.89-.68-3.35-2.53-3.96-4.43l-2.31.22c-.54-2.08,2.68-2.55,3.57-4.16.48-.16,1.72.26,1.63.85-.56.76-1.06,1.82-2.07,2.02Z"/>
  <path class="st0" d="M224.69,95.88c.68.73,1.23,2.38,1.07,3.39-.57,3.56-6.23.37-5.55-2.44.13-.55,1.24-2,1.82-2.09.63-.09,2.24.69,2.66,1.14ZM223.71,95.81c-2.05.19-1.88,2.88-.88,4.18l.9-.11c.96-1.21.52-2.77-.01-4.07Z"/>
  <path class="st0" d="M219.78,98.95c-2.36-.77-2.69,4.28-1.4,4.69,1.63.34,1.97-.9,2.58-2.06,2.52,3.94-2.56,4.46-4.28,1.66s-.2-7.76,3.1-4.29Z"/>
  <path class="st0" d="M205.36,112.33c-.15.14,1.17,3.29,1.26,3.86.08.47.04.57-.34.86-1.33-1.66-2.25-3.63-2.49-5.76,2.23-.65,2.66,1.58,4.46,1.57.29-1.42-1.54-2.26-1.18-3.67,1.03.36,3.23,4.03,3,4.82-.25.84-2.01-.14-2.43-.4-.8-.5-1.11-1.53-2.27-1.27Z"/>
  <path class="st0" d="M204.57,119.93c-2.65-.55-4.04-3.84-4.19-6.29,2.95,1,2.66,4.08,4.19,6.29Z"/>
  <path class="st0" d="M227.91,96.59c-.73.12-1.27-.46-1.57-1.04.27-.22,1.5.63,1.57,1.04Z"/>
  <rect class="st0" x="24.66" y="92.66" width=".52" height=".26"/>
  <path class="st0" d="M122.22,59.87c-.83.47-.62,1.81-.92,2.62-.53,1.45-1.53,3.02-1.95,4.61-.9.62-2.22-.92-2.89-1.4-1-5.84-2.23-11.68-3.11-17.55-.19-1.29-.17-2.64-.34-3.86-.52-3.74-1.84-7.51-1.05-11.29l1.3-.11c.17.46.48.92.55,1.41,1.17,7.52,2.2,15.04,3.39,22.58.33,2.11.42,4.28.69,6.39l.39.26,3.42-6.82c.39.25,1.06.3,1.38.51.91.61,1.27,5.61,1.68,7.04.2.71.64,1.31.88,2.01.31.91.41,2.1.75,2.92.14.33-.11.46.55.37-.29-2.88,1.24-5.9,1.55-8.55,1.14-9.82,2.19-19.58,3.41-29.38.2-1.59,0-3.61.3-5.21.27-1.44,3.12-1.22,3.14-.53-1.26,1.3-1.08,3.38-1.32,4.97-2.13,13.95-3.43,28.33-6.2,42.33l-1.03,1.87c-2.56-.68-1.82-2.11-2.28-3.98-.89-3.69-2.17-7.39-2.29-11.22Z"/>
  <path class="st0" d="M91.79,56.72c-.41.38-.46-.15-.6-.33-.69-.88-1.16-2.41-1.81-3.43-.88-1.38-2.03-2.35-2.96-3.6-.47-.63-1.91-4.22-3.28-3.54-.73.36-2.27,2.55-2.38,3.41-.41,3.24.22,9.79.86,13.06,1.23,6.31,5.95,18.7,9.79,23.78.38.51,2.51,2.94,2.9,3.14.73.37,3.27.02,4.01-.38.42-.23,1.61-2.03,1.74-2.46.37-1.22.04-3.26-.22-4.53-.47-2.33-2.01-5.17-2.29-7.42-.12-1.01,1.48.06,1.8.57.52.83,1.02,3.09,1.33,4.18.74,2.54,1.63,6.04,1.86,8.63.04.5.05,3.62-.05,3.78-1.67.45-2.87,1.44-4.69.96-1.02-.27-5.09-2.63-6.11-3.33-6.3-4.35-8.8-16.38-11-23.36-1.27-4.03-3.06-7.1-3.34-11.61-.16-2.49-.48-8.84,2.56-9.79,1.46-.46,5.07-.69,6.45-.02,2.29,1.11,2.44,2.75,3.44,4.69.47.9,1.22,1.64,1.59,2.61.34.88,1.07,4.37.39,4.98Z"/>
  <path class="st0" d="M198.79,50.68c-.35.08-.66-.05-.97-.19-1.2-.55-3.57-4.36-4.61-5.49-2.17-.48-3.04-3.71-5.15-1.51-.56.58-.83,1.87-.99,2.68-1.62,8.07,1.4,21.7,3.79,29.64.75,2.49,2.26,7.68,3.69,9.69.52.73,2.71,2.25,3.57,2.17.8-.07,2.72-2.26,3.06-3,1.01-2.23,1.02-8.5.77-11.03-.22-2.19-1.02-4.26-1.31-6.43-1.47.39-2.79.88-4.32.26-2.34-.94,1.62-1.56,1.98-1.69,1.92-.72,4.04-1.87,6.17-2.23.98-.16,3.81-.18,3.1,1.3-2.13.28-3.94,1.39-5.86,2.24.53,1.43,1.02,2.97,1.28,4.48.53,3.07,1.68,11.94.68,14.53-.25.64-1.52,3-2.03,3.21-1.18.51-4.22-.45-5.37-1.06-3.88-2.07-5.75-4.69-7.28-8.72-3.22-8.45-2.87-15.47-3.29-24.26-.16-3.3-1.63-10.97,1.33-13.37,1.53-1.24,6.66-.05,8.13,1.28.96.87,5.13,6.44,3.65,7.48Z"/>
  <path class="st0" d="M195.39,100.52c-.52.08-.69-.2-.78-.66-.67-3.53-3.02-6.38-4.51-9.66-1.17-1.67-3.3-.14-4.84.06-.93.12-1.86-.06-2.79.09-1.19.2-2.07,1.17-3.06,1.4-1.07.25-2.16,0-3.23.18-2.28.35-5.81,2.21-8.15,1.47-2.58-.81,3.42-2.54,3.81-2.66,2.24-.71,4.36-1.51,6.59-2.33,1.37-.5,6.9-1.11,8.41-.97,2.56.25,5.21,2.11,6.3,4.45.68,1.46.21,2.37.48,3.72.29,1.42,2,3.07,1.78,4.91Z"/>
  <path class="st0" d="M86.47,92.97c3.01-.88,2.13,2.75.21,2.73-1.37,0-1.67-2.3-.21-2.73Z"/>
  <path class="st0" d="M80.44,87.75c.38.3,1.49,2.14,1.12,2.54-1.4-.25-2.24-1.34-2.88-2.49.41-.62,1.27-.44,1.75-.05Z"/>
  <path class="st0" d="M84.12,91.65c.68-.13.96.1,1.37.61-1.52,2.28-3.62-.19-1.37-.61Z"/>
  <path class="st0" d="M97.82,30.75c.46,1.01.86,1.44.53,2.62-1.01.02-1.15-1.77-1.05-2.49l.52-.13Z"/>
  <path class="st0" d="M156.58,30.49c-.47-.5.74-1.79,1.18-2.09,1.04.51-.61,2.7-1.18,2.09Z"/>
  <path class="st0" d="M149.49,26.55c-.03.92-.79,1.54-1.57,1.83-.06-1.12.29-2.06,1.57-1.83Z"/>
  <path class="st0" d="M151.33,28.92c.78-.04.6-1.11,1.3-1.45.4-.2.79.09.79.27,0,.14-1.17,1.55-1.55,1.6l-.54-.41Z"/>
  <path class="st0" d="M146.08,27.08c-.96,0-1.49-1.22-.65-1.83l.65,1.83Z"/>
  <path class="st0" d="M155.2,29.63c-.12.14-.85.54-.98.2l1.31-1.97c0,.53.05,1.35-.33,1.77Z"/>
  <path class="st0" d="M95.99,33.63c-.35.35-1.19-1.04-1.31-1.31.31-.28,1.59,1.03,1.31,1.31Z"/>
  <path class="st0" d="M88.38,38.36l-1.04-.92v-.39c.32-.33,1.19.84,1.04,1.31Z"/>
  <path class="st0" d="M93.37,35.47l-1.05-1.31c.38-.32,1.17.85,1.05,1.31Z"/>
  <rect class="st0" x="181.76" y="85.05" width=".52" height=".26"/>
  <g>
    <path class="st0" d="M224.73,14.26l.57,11.5c.7-.51.71-1.82,1.48-2.34.72-.49,1.61.22,2.06.76l1.18-1.83c.12.83.32,1.67.54,2.48.27.99,1.37,1.9-.71,1.24-.91-.29-1.33-.88-2.18-1.09-.38.86-.75,4.39-1.71,4.47-1.36.11-1.51-1.18-1.71-2.24l-.78-13.25,1.27.3Z"/>
    <path class="st0" d="M256.43,33.43c3.62-.82,5.28,5.79.73,5.47-.81-.06-2.51-1.33-2.71-2.04-.32-1.1.84-3.17,1.98-3.43Z"/>
    <path class="st0" d="M253.62,65.9c-.06-.93-.72-2.11.13-2.88.97.68,1,2.38-.13,2.88Z"/>
    <path class="st0" d="M248.87,66.44l-.11,1.55c-.95-.61-1.23-1.75.11-1.55Z"/>
    <path class="st0" d="M251.78,66.16l.26-1.57h.26c.02.57.15,1.37-.52,1.57Z"/>
    <polygon class="st0" points="250.73 66.69 250.21 66.69 250.21 65.38 250.47 65.38 250.73 66.69"/>
  </g>
  <path class="st0" d="M221.35,83.21c-1.04-.21-1.46-3.24-.65-3.41,1.06-.23,1.09,2.74.65,3.41Z"/>
  <path class="st0" d="M219.52,84.26c-.46.55-1.74-1.85-.65-2.35.72.6.7,1.49.65,2.35Z"/>
  <path class="st0" d="M217.42,85.05c-1.2.07-1.36-.61-.39-1.3.49.32.42.76.39,1.3Z"/>
  <path class="st0" d="M216.11,86.1c-.55-.21-.88-.72-.78-1.31.55.21.88.72.78,1.31Z"/>
  <path class="st0" d="M149.05,34.87c.31.29.74.23,1.2.77,2.92,3.42,6.42,18.08,6.6,22.77.26,6.85-3.17,19.15-9.05,23.23-1.05.73-2.16.67-3.2,1.25-.77.43-1.5,1.63-2.1,1.83-.41.14-.93.02-1.39.19-2.06.78-5.62,2.39-7.34.19-.93-1.18-.17-2.49,0-3.87,1.59-13.13,2.96-26.41,5.43-39.42.7-3.69,1.12-7.78,2.3-11.34.22-.66,1.02-2.85,1.58-2.9,1.13-.11.99.99,1.42,1.48.33.38.9.32,1.3.8s.49,1.52.85,2.04c.15.21,2.26,2.84,2.41,2.97ZM146.44,35.12c-.75-1.03-1.11-2.26-2.32-3.06-.91,2.67-.75,5.68-1.24,8.46-2.03,11.47-5.25,22.82-6.49,34.43-.31,2.92-.33,5.88-.79,8.78.18.16,4.24-.88,4.61-1.03.8-.31,1.58-1.44,2.4-1.8,1.25-.55,2.15-.21,3.36-1.36,4.07-3.9,7.02-10.47,8.12-16.01,1.8-9.03-2.38-21.26-7.65-28.42Z"/>
  <path class="st0" d="M177.99,84.17c-1.79,1.78-5.19,2.46-7.64,2.19-1.49-.16-4.95-2.27-6.14-3.31-2.96-2.58-4.16-6.52-3.97-10.48.06-1.3.47-2.64.55-3.91.2-3.43.03-7.58.14-11.14.18-6.18-1.15-13.81,1.29-19.69.14-.35,1.31-2.51,1.48-2.72.53-.64,3.62-1.77,4.53-1.72.47.03,3.01.66,3.31.91.2.17,1.7,2.6,1.95,3.04,2.68,4.89,3.59,13.36,4.85,19,1.81,8.09,6.45,21.1-.32,27.83ZM168.83,34.76c-.58-.49-2.33-.17-2.92.21-1.19.76-2.24,5.26-2.27,6.66-.08,3.83-.28,7.43-.51,11.28-.58,9.8-.18,16.18,1.94,25.81.15.7.04,1.56.23,2.2.16.53,1.35,2.56,1.79,2.93.68.58,1.84.96,2.73.96,4.48.02,7.46-2.84,7.97-7.26.96-8.32-1.55-19.33-3.42-27.48-.76-3.29-1.18-6.69-2.54-9.79-.31-.7-2.7-5.26-3.01-5.51Z"/>
  <path class="st0" d="M99.36,36.06c1.07-.08,4.15.56,4.74,1.41,1.57,3.04,2.23,6.14,3.25,9.34,1.21,3.8,4.63,12.63,3.01,16.28-.14.31-.99,1.44-1.25,1.63-.13.09-2.17,1.11-2.29,1.14-.5.12-2.45-.32-3.01-.55-5.34-2.13-7.54-11.74-8.28-16.89-.34-2.35-.63-8.4.63-10.3.18-.27.73-.49,1.05-.79.85-.79.46-1.14,2.17-1.26ZM100.97,37.57l-.54.17c-1.61,1.53-.92,1.54-1.35,3.31-1.56,6.47.46,14.86,3.67,20.84.38.7,1.57,2.73,2.25,2.7,1.81-.09,3.22-1.44,3.26-3.28.11-4.81-1.85-11.06-3.5-15.6-1.04-2.86-2.11-5.59-3.8-8.14Z"/>
</svg>